<?xml version="1.0" encoding="UTF-8" standalone="no"?>
<!DOCTYPE svg PUBLIC "-//W3C//DTD SVG 1.1//EN" "http://www.w3.org/Graphics/SVG/1.1/DTD/svg11.dtd">
<svg width="100%" height="100%" viewBox="0 0 523 121" version="1.1" xmlns="http://www.w3.org/2000/svg" xmlns:xlink="http://www.w3.org/1999/xlink" xml:space="preserve" xmlns:serif="http://www.serif.com/" style="fill-rule:evenodd;clip-rule:evenodd;stroke-linejoin:round;stroke-miterlimit:1.5;">
    <g transform="matrix(0.591591,0,0,0.591591,-83.4163,-191.796)">
        <g>
            <g transform="matrix(0.999859,-0.0167848,0.0167848,0.999859,-16.529,-13.3875)">
                <path d="M160.766,447.161C160.766,447.161 249.282,379.85 248.174,379.395" style="fill:none;stroke:#a5d6a7;stroke-opacity:0.5;stroke-width:12.5px;"/>
            </g>
            <g transform="matrix(0.999085,-0.0427664,0.0427664,0.999085,-7.32787,21.4982)">
                <path d="M181.684,480.009L271.125,413.622" style="fill:none;stroke:#a5d6a7;stroke-opacity:0.5;stroke-width:12.5px;"/>
            </g>
            <g transform="matrix(0.999617,-0.0276752,0.0276752,0.999617,-13.4494,-0.851495)">
                <path d="M181.684,480.009L271.125,413.622" style="fill:none;stroke:#a5d6a7;stroke-opacity:0.5;stroke-width:12.5px;"/>
            </g>
            <g transform="matrix(1.00678,0.0301353,-0.0319929,1.06884,12.7573,-29.3621)">
                <path d="M161.526,447.596C161.526,447.596 249.091,379.551 247.984,379.097" style="fill:none;stroke:#a5d6a7;stroke-opacity:0.5;stroke-width:12.03px;"/>
            </g>
            <path d="M265.553,399.409C272.832,408.467 275.899,418.512 278.007,430.077C281.974,451.849 262.396,480.016 214.468,517.036C207.069,509.071 200.408,501.614 194.447,494.607C191.949,491.67 169.927,466.816 169.393,466.121" style="fill:#59b530;fill-opacity:0;stroke:#4caf50;stroke-width:20.83px;"/>
            <path d="M164.393,459.241C133.046,418.93 161.922,382.536 214.468,334.62C236.076,359.866 248.89,378.176 260.714,392.805" style="fill:#59b530;fill-opacity:0;stroke:#4caf50;stroke-width:20.83px;"/>
        </g>
        <g transform="matrix(1.04162,0,0,1.03078,7.40911,-8.69496)">
            <g transform="matrix(0.581848,0,0,0.581848,97.4166,174.773)">
                <g transform="matrix(289.517,0,0,311.234,324.687,540.728)">
                    <path d="M0.339,0.008C0.277,0.008 0.224,-0.004 0.178,-0.028C0.131,-0.052 0.096,-0.085 0.07,-0.127C0.045,-0.168 0.032,-0.216 0.032,-0.269C0.032,-0.323 0.045,-0.371 0.07,-0.412C0.094,-0.454 0.129,-0.487 0.172,-0.51C0.215,-0.534 0.264,-0.546 0.319,-0.546C0.372,-0.546 0.419,-0.534 0.461,-0.512C0.504,-0.49 0.537,-0.458 0.562,-0.416C0.586,-0.375 0.599,-0.325 0.599,-0.267C0.599,-0.261 0.599,-0.254 0.598,-0.246C0.598,-0.239 0.597,-0.232 0.596,-0.225L0.159,-0.225L0.159,-0.316L0.514,-0.316L0.454,-0.289C0.454,-0.317 0.448,-0.341 0.437,-0.362C0.425,-0.383 0.41,-0.399 0.39,-0.411C0.37,-0.422 0.346,-0.428 0.32,-0.428C0.293,-0.428 0.27,-0.422 0.249,-0.411C0.229,-0.399 0.213,-0.383 0.202,-0.362C0.191,-0.341 0.185,-0.316 0.185,-0.287L0.185,-0.263C0.185,-0.233 0.192,-0.208 0.205,-0.186C0.218,-0.163 0.236,-0.146 0.26,-0.135C0.284,-0.123 0.311,-0.117 0.343,-0.117C0.372,-0.117 0.397,-0.121 0.418,-0.13C0.44,-0.138 0.46,-0.151 0.478,-0.169L0.561,-0.079C0.536,-0.051 0.505,-0.029 0.468,-0.015C0.431,0 0.388,0.008 0.339,0.008Z" style="fill:#6e6e6e;fill-rule:nonzero;stroke:#6e6e6e;stroke-width:0.01px;stroke-miterlimit:2;"/>
                </g>
                <g transform="matrix(289.517,0,0,311.234,489.503,540.728)">
                    <path d="M0.399,-0.546C0.441,-0.546 0.48,-0.537 0.513,-0.52C0.547,-0.504 0.573,-0.478 0.593,-0.443C0.612,-0.408 0.622,-0.363 0.622,-0.308L0.622,-0L0.466,-0L0.466,-0.284C0.466,-0.328 0.456,-0.36 0.437,-0.38C0.418,-0.401 0.392,-0.411 0.357,-0.411C0.332,-0.411 0.31,-0.406 0.29,-0.395C0.271,-0.385 0.256,-0.369 0.245,-0.348C0.234,-0.327 0.228,-0.299 0.228,-0.266L0.228,-0L0.072,-0L0.072,-0.538L0.221,-0.538L0.221,-0.389L0.193,-0.434C0.212,-0.47 0.24,-0.498 0.276,-0.517C0.312,-0.536 0.353,-0.546 0.399,-0.546Z" style="fill:#6e6e6e;fill-rule:nonzero;stroke:#6e6e6e;stroke-width:0.01px;stroke-miterlimit:2;"/>
                </g>
                <g transform="matrix(289.517,0,0,311.234,671.475,540.728)">
                    <path d="M0.303,0.008C0.253,0.008 0.207,-0.004 0.166,-0.027C0.126,-0.049 0.093,-0.081 0.07,-0.123C0.046,-0.164 0.034,-0.213 0.034,-0.269C0.034,-0.325 0.046,-0.374 0.07,-0.416C0.093,-0.457 0.126,-0.489 0.166,-0.512C0.207,-0.534 0.253,-0.546 0.303,-0.546C0.348,-0.546 0.388,-0.536 0.422,-0.516C0.456,-0.496 0.482,-0.465 0.501,-0.425C0.52,-0.384 0.529,-0.332 0.529,-0.269C0.529,-0.206 0.52,-0.154 0.502,-0.113C0.484,-0.072 0.458,-0.042 0.424,-0.022C0.391,-0.002 0.35,0.008 0.303,0.008ZM0.33,-0.12C0.355,-0.12 0.379,-0.126 0.399,-0.138C0.42,-0.15 0.436,-0.167 0.448,-0.189C0.461,-0.212 0.467,-0.239 0.467,-0.269C0.467,-0.3 0.461,-0.327 0.448,-0.349C0.436,-0.371 0.42,-0.388 0.399,-0.4C0.379,-0.412 0.355,-0.418 0.33,-0.418C0.304,-0.418 0.28,-0.412 0.26,-0.4C0.239,-0.388 0.223,-0.371 0.211,-0.349C0.198,-0.327 0.192,-0.3 0.192,-0.269C0.192,-0.239 0.198,-0.212 0.211,-0.189C0.223,-0.167 0.239,-0.15 0.26,-0.138C0.28,-0.126 0.304,-0.12 0.33,-0.12ZM0.471,-0L0.471,-0.11L0.474,-0.27L0.464,-0.429L0.464,-0.742L0.62,-0.742L0.62,-0L0.471,-0Z" style="fill:#6e6e6e;fill-rule:nonzero;stroke:#6e6e6e;stroke-width:0.01px;stroke-miterlimit:2;"/>
                </g>
                <g transform="matrix(289.517,0,0,311.234,853.965,540.728)">
                    <path d="M0.328,0.008C0.271,0.008 0.22,-0.004 0.176,-0.028C0.131,-0.052 0.096,-0.084 0.071,-0.126C0.045,-0.168 0.032,-0.216 0.032,-0.269C0.032,-0.323 0.045,-0.371 0.071,-0.413C0.096,-0.454 0.131,-0.487 0.176,-0.51C0.22,-0.534 0.27,-0.546 0.328,-0.546C0.385,-0.546 0.436,-0.534 0.48,-0.51C0.525,-0.487 0.559,-0.454 0.585,-0.413C0.61,-0.371 0.623,-0.323 0.623,-0.269C0.623,-0.215 0.61,-0.168 0.585,-0.126C0.56,-0.084 0.525,-0.052 0.48,-0.028C0.435,-0.004 0.385,0.008 0.328,0.008ZM0.328,-0.12C0.354,-0.12 0.377,-0.126 0.398,-0.138C0.418,-0.15 0.435,-0.167 0.447,-0.189C0.459,-0.212 0.465,-0.239 0.465,-0.269C0.465,-0.3 0.459,-0.327 0.447,-0.349C0.435,-0.371 0.418,-0.388 0.398,-0.4C0.377,-0.412 0.354,-0.418 0.328,-0.418C0.302,-0.418 0.278,-0.412 0.258,-0.4C0.237,-0.388 0.221,-0.371 0.209,-0.349C0.196,-0.327 0.19,-0.3 0.19,-0.269C0.19,-0.239 0.196,-0.212 0.209,-0.189C0.221,-0.167 0.237,-0.15 0.258,-0.138C0.278,-0.126 0.302,-0.12 0.328,-0.12Z" style="fill:#6e6e6e;fill-rule:nonzero;stroke:#6e6e6e;stroke-width:0.01px;stroke-miterlimit:2;"/>
                </g>
            </g>
            <g transform="matrix(1.1306,0,0,1.1306,-106.628,-224.721)">
                <path d="M776.523,633.031C768.873,633.031 762.261,631.291 756.687,627.81C751.113,624.329 746.847,618.985 743.889,611.779C740.931,604.572 739.452,595.439 739.452,584.379C739.452,573.294 740.997,564.178 744.086,557.031C747.175,549.884 751.517,544.559 757.113,541.055C762.708,537.551 769.178,535.799 776.523,535.799C784.832,535.799 792.29,537.791 798.897,541.776C805.505,545.76 810.737,551.385 814.595,558.65C818.453,565.915 820.383,574.491 820.383,584.379C820.383,594.267 818.453,602.844 814.595,610.109C810.737,617.374 805.505,623.01 798.897,627.019C792.29,631.027 784.832,633.031 776.523,633.031ZM724.633,631.696L724.633,501.262L750.143,501.262L750.143,556.223L748.507,584.272L748.937,612.324L748.937,631.696L724.633,631.696ZM772.134,610.577C776.372,610.577 780.173,609.538 783.537,607.46C786.901,605.381 789.582,602.359 791.581,598.391C793.58,594.424 794.579,589.754 794.579,584.379C794.579,578.888 793.58,574.199 791.581,570.314C789.582,566.428 786.901,563.446 783.537,561.368C780.173,559.289 776.372,558.25 772.134,558.25C767.896,558.25 764.094,559.289 760.729,561.368C757.364,563.446 754.682,566.428 752.684,570.314C750.685,574.199 749.685,578.888 749.685,584.379C749.685,589.754 750.685,594.424 752.684,598.391C754.682,602.359 757.364,605.381 760.729,607.46C764.094,609.538 767.896,610.577 772.134,610.577Z" style="fill:#4caf50;fill-rule:nonzero;stroke:#4caf50;stroke-width:0.85px;stroke-miterlimit:2;"/>
                <rect x="827.491" y="537.123" width="25.509" height="94.573" style="fill:#4caf50;fill-rule:nonzero;stroke:#4caf50;stroke-width:0.85px;stroke-miterlimit:2;"/>
                <path d="M908.465,633.031C899.146,633.031 890.861,630.945 883.611,626.773C876.36,622.601 870.649,616.846 866.475,609.51C862.302,602.174 860.216,593.79 860.216,584.36C860.216,574.858 862.309,566.462 866.495,559.17C870.681,551.879 876.385,546.161 883.608,542.016C890.831,537.871 899.117,535.799 908.465,535.799C917.814,535.799 926.13,537.869 933.411,542.009C940.691,546.149 946.396,551.861 950.524,559.144C954.652,566.428 956.716,574.834 956.716,584.363C956.716,593.817 954.656,602.206 950.537,609.529C946.417,616.853 940.705,622.601 933.399,626.773C926.093,630.945 917.782,633.031 908.465,633.031ZM908.465,610.577C912.769,610.577 916.603,609.538 919.967,607.46C923.331,605.381 925.997,602.359 927.963,598.391C929.93,594.424 930.913,589.749 930.913,584.366C930.913,578.883 929.93,574.199 927.963,570.314C925.997,566.428 923.331,563.446 919.967,561.368C916.603,559.289 912.786,558.25 908.516,558.25C904.244,558.25 900.426,559.289 897.062,561.368C893.697,563.446 891.016,566.428 889.017,570.314C887.018,574.199 886.019,578.883 886.019,584.366C886.019,589.749 887.018,594.424 889.017,598.391C891.016,602.359 893.695,605.381 897.055,607.46C900.415,609.538 904.218,610.577 908.465,610.577Z" style="fill:#4caf50;fill-rule:nonzero;stroke:#4caf50;stroke-width:0.85px;stroke-miterlimit:2;"/>
            </g>
        </g>
        <g transform="matrix(0.510942,0,0,0.532512,363.632,-114.626)">
            <path d="M979.518,875.52C1005.52,874.948 1019.03,861.381 1022.27,836.725C1024.79,862.594 1041.77,876.183 1064.65,875.424C1038.66,877.074 1023.18,889.361 1021.99,917.34C1020.03,886.295 1003.17,876.156 979.518,875.52Z" style="fill:#4caf50;stroke:#4caf50;stroke-width:1.92px;"/>
        </g>
    </g>
</svg>
